<svg width="14" height="14" viewBox="0 0 14 14" fill="none" xmlns="http://www.w3.org/2000/svg">
<path d="M11.9999 10.2C11.2931 11.2663 10.264 12.0788 9.06283 12.5189C7.86163 12.9589 6.55121 13.0036 5.32285 12.6462C4.09449 12.2889 3.01251 11.5483 2.23481 10.5325C1.45712 9.51677 1.02444 8.27905 0.999931 7C0.98514 5.74866 1.36199 4.52401 2.07773 3.49746C2.79346 2.47092 3.81227 1.69386 4.99154 1.27506C6.17081 0.85625 7.45152 0.816658 8.6544 1.16182C9.85729 1.50699 10.9222 2.21963 11.6999 3.2" stroke="#00A1FF"/>
<path d="M11.9388 4L12 3L11.3469 3.42L11 3.62L11.9388 4Z" stroke="#00A1FF" stroke-width="2"/>
</svg>
